# xmcd
#
# Track frame offsets:
#	150
#	15730
#	34922
#	51802
#	69227
#	86265
#	101205
#	118250
#	131857
#	144947
#	163507
#	179700
#	200059
#	220042
#	235485
#
# Disc length: 3305 seconds
#
# Revision: 1
# Processed by: cddbd v1.5.2PL0 Copyright (c) Steve Scherf et al.
# Submitted via: audiograbber 1.83.01
#
DISCID=dd0ce70f
DTITLE=Sound Choice - SC8414
DYEAR=1900
DGENRE=Karaoke 70's and 80's Country
TTITLE0=Moe Bandy - Hank Williams you wrote my life
TTITLE1=Johnny Lee - Cherokee Fiddle
TTITLE2=Bellamy Brothers - Sugar daddy
TTITLE3=Willie Nelson - Blue skies
TTITLE4=Janie Fricke - Tell me a lie
TTITLE5=Donna Fargo - Don't be angry
TTITLE6=Ed Bruce - Girls, women and ladies
TTITLE7=Conway Twitty - This time I've hurt her more than (than she loves me)
TTITLE8=Crystal Gayle - Wrong road again
TTITLE9=Emmylou Harris - Together again
TTITLE10=Ricky Van Shelton - Living proof
TTITLE11=Keith Whitley - It ain't nothin'
TTITLE12=Roseanne Cash - Runaway train
TTITLE13=Janie Fricke - She's single again
TTITLE14=Glen Campbell - Everything a man could ever need
EXTD=
EXTT0=
EXTT1=
EXTT2=
EXTT3=
EXTT4=
EXTT5=
EXTT6=
EXTT7=
EXTT8=
EXTT9=
EXTT10=
EXTT11=
EXTT12=
EXTT13=
EXTT14=
PLAYORDER=
